<svg aria-hidden="true" style="position: absolute; width: 0; height: 0; overflow: hidden;" version="1.1" xmlns="http://www.w3.org/2000/svg" xmlns:xlink="http://www.w3.org/1999/xlink">
<defs>
<symbol id="icon-bucket" viewBox="0 0 35 32">
<path d="M17.524 0l-11.148 11.443h-6.376v7.709h1.565l3.481 11.925 0.274 0.924h24.408l0.274-0.924 3.481-11.925h1.565v-7.709h-6.376l-11.148-11.443zM17.524 3.654l7.589 7.789h-15.177l7.588-7.789zM2.503 14.012h30.041v2.57h-0.939l-0.274 0.924-3.481 11.925h-20.653l-3.481-11.925-0.274-0.924h-0.939v-2.57zM11.265 17.867v8.994h2.503v-8.994h-2.503zM16.272 17.867v8.994h2.503v-8.994h-2.503zM21.279 17.867v8.994h2.503v-8.994h-2.503z"></path>
</symbol>
<symbol id="icon-loop" viewBox="0 0 32 32">
<path  d="M13.474 26.947c2.989-0.001 5.893-1.001 8.248-2.843l7.404 7.404 2.381-2.381-7.404-7.404c1.843-2.355 2.844-5.259 2.845-8.249 0-7.429-6.045-13.474-13.474-13.474s-13.474 6.045-13.474 13.474c0 7.429 6.045 13.474 13.474 13.474zM13.474 3.368c5.573 0 10.105 4.532 10.105 10.105s-4.532 10.105-10.105 10.105c-5.573 0-10.105-4.532-10.105-10.105s4.532-10.105 10.105-10.105z"></path>
</symbol>
</defs>
</svg>
